<mxfile host="app.diagrams.net" modified="2023-10-05T07:48:46.670Z" agent="Mozilla/5.0 (Windows NT 10.0; Win64; x64) AppleWebKit/537.36 (KHTML, like Gecko) Chrome/117.0.0.0 Safari/537.36 Edg/117.0.2045.47" etag="c6iFxfg4uQrnAzgagDb4" version="22.0.2" type="device">
  <diagram name="Side-1" id="8Fdu3N6OjphYa0k-Y4p-">
    <mxGraphModel dx="742" dy="495" grid="1" gridSize="10" guides="1" tooltips="1" connect="1" arrows="1" fold="1" page="1" pageScale="1" pageWidth="827" pageHeight="1169" background="none" math="0" shadow="0">
      <root>
        <mxCell id="0" />
        <mxCell id="1" parent="0" />
        <mxCell id="WZlU59-t2lZ2N9knMD7b-11" value="" style="edgeStyle=orthogonalEdgeStyle;rounded=0;orthogonalLoop=1;jettySize=auto;html=1;strokeColor=#DDA15E;fontColor=#FEFAE0;fillColor=#BC6C25;" edge="1" parent="1" source="WZlU59-t2lZ2N9knMD7b-1" target="WZlU59-t2lZ2N9knMD7b-2">
          <mxGeometry relative="1" as="geometry" />
        </mxCell>
        <mxCell id="WZlU59-t2lZ2N9knMD7b-1" value="Main" style="rounded=0;whiteSpace=wrap;html=1;labelBackgroundColor=none;fillColor=#BC6C25;strokeColor=#DDA15E;fontColor=#FEFAE0;" vertex="1" parent="1">
          <mxGeometry x="80" y="40" width="90" height="50" as="geometry" />
        </mxCell>
        <mxCell id="WZlU59-t2lZ2N9knMD7b-10" value="" style="edgeStyle=orthogonalEdgeStyle;rounded=0;orthogonalLoop=1;jettySize=auto;html=1;strokeColor=#DDA15E;fontColor=#FEFAE0;fillColor=#BC6C25;" edge="1" parent="1" source="WZlU59-t2lZ2N9knMD7b-2" target="WZlU59-t2lZ2N9knMD7b-6">
          <mxGeometry relative="1" as="geometry" />
        </mxCell>
        <mxCell id="WZlU59-t2lZ2N9knMD7b-2" value="UserInterFace" style="rounded=0;whiteSpace=wrap;html=1;labelBackgroundColor=none;fillColor=#BC6C25;strokeColor=#DDA15E;fontColor=#FEFAE0;" vertex="1" parent="1">
          <mxGeometry x="240" y="40" width="90" height="50" as="geometry" />
        </mxCell>
        <mxCell id="WZlU59-t2lZ2N9knMD7b-16" value="" style="edgeStyle=orthogonalEdgeStyle;rounded=0;orthogonalLoop=1;jettySize=auto;html=1;strokeColor=#DDA15E;fontColor=#FEFAE0;fillColor=#BC6C25;" edge="1" parent="1" source="WZlU59-t2lZ2N9knMD7b-3" target="WZlU59-t2lZ2N9knMD7b-5">
          <mxGeometry relative="1" as="geometry" />
        </mxCell>
        <mxCell id="WZlU59-t2lZ2N9knMD7b-17" value="" style="edgeStyle=orthogonalEdgeStyle;rounded=0;orthogonalLoop=1;jettySize=auto;html=1;strokeColor=#DDA15E;fontColor=#FEFAE0;fillColor=#BC6C25;" edge="1" parent="1" source="WZlU59-t2lZ2N9knMD7b-3" target="WZlU59-t2lZ2N9knMD7b-7">
          <mxGeometry relative="1" as="geometry" />
        </mxCell>
        <mxCell id="WZlU59-t2lZ2N9knMD7b-3" value="Player" style="rounded=0;whiteSpace=wrap;html=1;labelBackgroundColor=none;fillColor=#BC6C25;strokeColor=#DDA15E;fontColor=#FEFAE0;" vertex="1" parent="1">
          <mxGeometry x="400" y="150" width="90" height="50" as="geometry" />
        </mxCell>
        <mxCell id="WZlU59-t2lZ2N9knMD7b-4" value="Food" style="rounded=0;whiteSpace=wrap;html=1;labelBackgroundColor=none;fillColor=#BC6C25;strokeColor=#DDA15E;fontColor=#FEFAE0;" vertex="1" parent="1">
          <mxGeometry x="400" y="370" width="90" height="50" as="geometry" />
        </mxCell>
        <mxCell id="WZlU59-t2lZ2N9knMD7b-5" value="Room" style="rounded=0;whiteSpace=wrap;html=1;labelBackgroundColor=none;fillColor=#BC6C25;strokeColor=#DDA15E;fontColor=#FEFAE0;" vertex="1" parent="1">
          <mxGeometry x="560" y="150" width="90" height="50" as="geometry" />
        </mxCell>
        <mxCell id="WZlU59-t2lZ2N9knMD7b-12" value="" style="edgeStyle=orthogonalEdgeStyle;rounded=0;orthogonalLoop=1;jettySize=auto;html=1;strokeColor=#DDA15E;fontColor=#FEFAE0;fillColor=#BC6C25;" edge="1" parent="1" source="WZlU59-t2lZ2N9knMD7b-6" target="WZlU59-t2lZ2N9knMD7b-8">
          <mxGeometry relative="1" as="geometry" />
        </mxCell>
        <mxCell id="WZlU59-t2lZ2N9knMD7b-14" value="" style="edgeStyle=orthogonalEdgeStyle;rounded=0;orthogonalLoop=1;jettySize=auto;html=1;strokeColor=#DDA15E;fontColor=#FEFAE0;fillColor=#BC6C25;" edge="1" parent="1" source="WZlU59-t2lZ2N9knMD7b-6" target="WZlU59-t2lZ2N9knMD7b-3">
          <mxGeometry relative="1" as="geometry" />
        </mxCell>
        <mxCell id="WZlU59-t2lZ2N9knMD7b-6" value="Adventure" style="rounded=0;whiteSpace=wrap;html=1;labelBackgroundColor=none;fillColor=#BC6C25;strokeColor=#DDA15E;fontColor=#FEFAE0;" vertex="1" parent="1">
          <mxGeometry x="400" y="40" width="90" height="50" as="geometry" />
        </mxCell>
        <mxCell id="WZlU59-t2lZ2N9knMD7b-18" value="" style="edgeStyle=orthogonalEdgeStyle;rounded=0;orthogonalLoop=1;jettySize=auto;html=1;strokeColor=#DDA15E;fontColor=#FEFAE0;fillColor=#BC6C25;" edge="1" parent="1" source="WZlU59-t2lZ2N9knMD7b-7" target="WZlU59-t2lZ2N9knMD7b-9">
          <mxGeometry relative="1" as="geometry" />
        </mxCell>
        <mxCell id="WZlU59-t2lZ2N9knMD7b-19" value="" style="edgeStyle=orthogonalEdgeStyle;rounded=0;orthogonalLoop=1;jettySize=auto;html=1;strokeColor=#DDA15E;fontColor=#FEFAE0;fillColor=#BC6C25;" edge="1" parent="1" source="WZlU59-t2lZ2N9knMD7b-7" target="WZlU59-t2lZ2N9knMD7b-4">
          <mxGeometry relative="1" as="geometry" />
        </mxCell>
        <mxCell id="WZlU59-t2lZ2N9knMD7b-7" value="Item" style="rounded=0;whiteSpace=wrap;html=1;labelBackgroundColor=none;fillColor=#BC6C25;strokeColor=#DDA15E;fontColor=#FEFAE0;" vertex="1" parent="1">
          <mxGeometry x="400" y="270" width="90" height="50" as="geometry" />
        </mxCell>
        <mxCell id="WZlU59-t2lZ2N9knMD7b-15" value="" style="edgeStyle=orthogonalEdgeStyle;rounded=0;orthogonalLoop=1;jettySize=auto;html=1;strokeColor=#DDA15E;fontColor=#FEFAE0;fillColor=#BC6C25;" edge="1" parent="1" source="WZlU59-t2lZ2N9knMD7b-8" target="WZlU59-t2lZ2N9knMD7b-5">
          <mxGeometry relative="1" as="geometry" />
        </mxCell>
        <mxCell id="WZlU59-t2lZ2N9knMD7b-8" value="Map" style="rounded=0;whiteSpace=wrap;html=1;labelBackgroundColor=none;fillColor=#BC6C25;strokeColor=#DDA15E;fontColor=#FEFAE0;" vertex="1" parent="1">
          <mxGeometry x="560" y="40" width="90" height="50" as="geometry" />
        </mxCell>
        <mxCell id="WZlU59-t2lZ2N9knMD7b-9" value="Weapon" style="rounded=0;whiteSpace=wrap;html=1;labelBackgroundColor=none;fillColor=#BC6C25;strokeColor=#DDA15E;fontColor=#FEFAE0;" vertex="1" parent="1">
          <mxGeometry x="260" y="270" width="90" height="50" as="geometry" />
        </mxCell>
      </root>
    </mxGraphModel>
  </diagram>
</mxfile>
